<mxfile type="github" version="12.9.4" host="app.diagrams.net" modified="2020-04-09T02:43:15.051Z" agent="5.0 (Windows NT 10.0; Win64; x64) AppleWebKit/537.36 (KHTML, like Gecko) Chrome/64.0.3282.140 Safari/537.36 Edge/18.17763" etag="SwxGZ8JF5opepYoPSVnZ" pages="2">
  <diagram id="e7e014a7-5840-1c2e-5031-d8a46d1fe8dd" name="域划分及依赖关系">
    <mxGraphModel grid="1" shadow="0" math="0" background="#ffffff" pageHeight="826" pageWidth="1169" pageScale="1" page="1" fold="1" arrows="1" connect="1" tooltips="1" guides="1" gridSize="10" dy="912" dx="1422">
      <root>
        <mxCell id="0" />
        <mxCell id="1" parent="0" />
        <mxCell id="yR1TMCCngbWYEgnoR-3_-47" value="" parent="1" style="edgeStyle=orthogonalEdgeStyle;rounded=0;orthogonalLoop=1;jettySize=auto;html=1;" edge="1" target="yR1TMCCngbWYEgnoR-3_-43" source="yR1TMCCngbWYEgnoR-3_-41">
          <mxGeometry as="geometry" relative="1" />
        </mxCell>
        <mxCell id="yR1TMCCngbWYEgnoR-3_-48" parent="1" style="edgeStyle=orthogonalEdgeStyle;rounded=0;orthogonalLoop=1;jettySize=auto;html=1;entryX=0.5;entryY=1;entryDx=0;entryDy=0;curved=1;" edge="1" target="yR1TMCCngbWYEgnoR-3_-44" source="yR1TMCCngbWYEgnoR-3_-41">
          <mxGeometry as="geometry" relative="1" />
        </mxCell>
        <mxCell id="yR1TMCCngbWYEgnoR-3_-41" value="商品" parent="1" vertex="1" style="rounded=1;whiteSpace=wrap;html=1;">
          <mxGeometry as="geometry" height="60" width="120" y="470" x="50" />
        </mxCell>
        <mxCell id="yR1TMCCngbWYEgnoR-3_-46" value="" parent="1" style="edgeStyle=orthogonalEdgeStyle;rounded=0;orthogonalLoop=1;jettySize=auto;html=1;curved=1;" edge="1" target="yR1TMCCngbWYEgnoR-3_-41" source="yR1TMCCngbWYEgnoR-3_-42">
          <mxGeometry as="geometry" relative="1" />
        </mxCell>
        <mxCell id="yR1TMCCngbWYEgnoR-3_-42" value="供应商" parent="1" vertex="1" style="rounded=1;whiteSpace=wrap;html=1;">
          <mxGeometry as="geometry" height="60" width="120" y="600" x="50" />
        </mxCell>
        <mxCell id="yR1TMCCngbWYEgnoR-3_-49" parent="1" style="edgeStyle=orthogonalEdgeStyle;rounded=0;orthogonalLoop=1;jettySize=auto;html=1;exitX=0.5;exitY=0;exitDx=0;exitDy=0;entryX=0;entryY=0.5;entryDx=0;entryDy=0;curved=1;" edge="1" target="yR1TMCCngbWYEgnoR-3_-45" source="yR1TMCCngbWYEgnoR-3_-43">
          <mxGeometry as="geometry" relative="1" />
        </mxCell>
        <mxCell id="yR1TMCCngbWYEgnoR-3_-43" value="价格/库存" parent="1" vertex="1" style="rounded=1;whiteSpace=wrap;html=1;">
          <mxGeometry as="geometry" height="60" width="120" y="230" x="50" />
        </mxCell>
        <mxCell id="yR1TMCCngbWYEgnoR-3_-51" parent="1" style="rounded=0;orthogonalLoop=1;jettySize=auto;html=1;entryX=1;entryY=0.5;entryDx=0;entryDy=0;exitX=0.5;exitY=0;exitDx=0;exitDy=0;elbow=vertical;edgeStyle=orthogonalEdgeStyle;curved=1;" edge="1" target="yR1TMCCngbWYEgnoR-3_-43" source="yR1TMCCngbWYEgnoR-3_-44">
          <mxGeometry as="geometry" relative="1" />
        </mxCell>
        <mxCell id="yR1TMCCngbWYEgnoR-3_-44" value="活动" parent="1" vertex="1" style="rounded=1;whiteSpace=wrap;html=1;">
          <mxGeometry as="geometry" height="60" width="120" y="353" x="210" />
        </mxCell>
        <mxCell id="yR1TMCCngbWYEgnoR-3_-45" value="订单" parent="1" vertex="1" style="rounded=1;whiteSpace=wrap;html=1;">
          <mxGeometry as="geometry" height="60" width="120" y="80" x="170" />
        </mxCell>
        <mxCell id="yR1TMCCngbWYEgnoR-3_-55" parent="1" style="edgeStyle=orthogonalEdgeStyle;curved=1;rounded=0;orthogonalLoop=1;jettySize=auto;html=1;exitX=0.5;exitY=0;exitDx=0;exitDy=0;entryX=1;entryY=0.5;entryDx=0;entryDy=0;" edge="1" target="yR1TMCCngbWYEgnoR-3_-45" source="yR1TMCCngbWYEgnoR-3_-53">
          <mxGeometry as="geometry" relative="1" />
        </mxCell>
        <mxCell id="yR1TMCCngbWYEgnoR-3_-56" value="这里的依赖方向是如何的？" parent="yR1TMCCngbWYEgnoR-3_-55" vertex="1" style="text;html=1;align=center;verticalAlign=middle;resizable=0;points=[];labelBackgroundColor=#ffffff;" connectable="0">
          <mxGeometry as="geometry" y="13" x="0.22" relative="1">
            <mxPoint as="offset" />
          </mxGeometry>
        </mxCell>
        <mxCell id="yR1TMCCngbWYEgnoR-3_-53" value="物流" parent="1" vertex="1" style="rounded=1;whiteSpace=wrap;html=1;">
          <mxGeometry as="geometry" height="60" width="120" y="190" x="350" />
        </mxCell>
      </root>
    </mxGraphModel>
  </diagram>
  <diagram id="Oza5TP0B8G4q6x-57-xQ" name="业务实体1对1关系的设计">
    <mxGraphModel grid="1" shadow="0" math="0" pageHeight="1169" pageWidth="827" pageScale="1" page="1" fold="1" arrows="1" connect="1" tooltips="1" guides="1" gridSize="10" dy="912" dx="1422">
      <root>
        <mxCell id="g_I85KlBNZ0irVnc1Mws-0" />
        <mxCell id="g_I85KlBNZ0irVnc1Mws-1" parent="g_I85KlBNZ0irVnc1Mws-0" />
        <mxCell id="g_I85KlBNZ0irVnc1Mws-2" value="" parent="g_I85KlBNZ0irVnc1Mws-1" style="edgeStyle=orthogonalEdgeStyle;curved=1;rounded=0;orthogonalLoop=1;jettySize=auto;html=1;exitX=0.5;exitY=0;exitDx=0;exitDy=0;entryX=0;entryY=0.5;entryDx=0;entryDy=0;" edge="1" target="g_I85KlBNZ0irVnc1Mws-9" source="g_I85KlBNZ0irVnc1Mws-8">
          <mxGeometry as="geometry" relative="1" />
        </mxCell>
        <mxCell id="g_I85KlBNZ0irVnc1Mws-3" value="&lt;b&gt;1&lt;/b&gt;" parent="g_I85KlBNZ0irVnc1Mws-2" vertex="1" style="text;html=1;align=center;verticalAlign=middle;resizable=0;points=[];labelBackgroundColor=#ffffff;" connectable="0">
          <mxGeometry as="geometry" x="-0.8682" relative="1">
            <mxPoint as="offset" />
          </mxGeometry>
        </mxCell>
        <mxCell id="g_I85KlBNZ0irVnc1Mws-4" value="1" parent="g_I85KlBNZ0irVnc1Mws-2" vertex="1" style="text;html=1;align=center;verticalAlign=middle;resizable=0;points=[];labelBackgroundColor=#ffffff;" connectable="0">
          <mxGeometry as="geometry" y="1" x="0.8372" relative="1">
            <mxPoint as="offset" />
          </mxGeometry>
        </mxCell>
        <mxCell id="g_I85KlBNZ0irVnc1Mws-5" parent="g_I85KlBNZ0irVnc1Mws-1" style="edgeStyle=orthogonalEdgeStyle;curved=1;rounded=0;orthogonalLoop=1;jettySize=auto;html=1;exitX=0.5;exitY=1;exitDx=0;exitDy=0;entryX=0;entryY=0.5;entryDx=0;entryDy=0;" edge="1" target="g_I85KlBNZ0irVnc1Mws-10" source="g_I85KlBNZ0irVnc1Mws-8">
          <mxGeometry as="geometry" relative="1" />
        </mxCell>
        <mxCell id="g_I85KlBNZ0irVnc1Mws-6" value="&lt;b&gt;1&lt;/b&gt;" parent="g_I85KlBNZ0irVnc1Mws-5" vertex="1" style="text;html=1;align=center;verticalAlign=middle;resizable=0;points=[];labelBackgroundColor=#ffffff;" connectable="0">
          <mxGeometry as="geometry" y="-1" x="-0.8824" relative="1">
            <mxPoint as="offset" />
          </mxGeometry>
        </mxCell>
        <mxCell id="g_I85KlBNZ0irVnc1Mws-7" value="1" parent="g_I85KlBNZ0irVnc1Mws-5" vertex="1" style="text;html=1;align=center;verticalAlign=middle;resizable=0;points=[];labelBackgroundColor=#ffffff;" connectable="0">
          <mxGeometry as="geometry" y="4" x="0.8182" relative="1">
            <mxPoint as="offset" />
          </mxGeometry>
        </mxCell>
        <mxCell id="g_I85KlBNZ0irVnc1Mws-8" value="A" parent="g_I85KlBNZ0irVnc1Mws-1" vertex="1" style="rounded=1;whiteSpace=wrap;html=1;">
          <mxGeometry as="geometry" height="60" width="120" y="150" x="310" />
        </mxCell>
        <mxCell id="g_I85KlBNZ0irVnc1Mws-9" value="B" parent="g_I85KlBNZ0irVnc1Mws-1" vertex="1" style="rounded=1;whiteSpace=wrap;html=1;">
          <mxGeometry as="geometry" height="60" width="120" y="60" x="540" />
        </mxCell>
        <mxCell id="g_I85KlBNZ0irVnc1Mws-10" value="C" parent="g_I85KlBNZ0irVnc1Mws-1" vertex="1" style="rounded=1;whiteSpace=wrap;html=1;">
          <mxGeometry as="geometry" height="60" width="120" y="240" x="540" />
        </mxCell>
        <mxCell id="g_I85KlBNZ0irVnc1Mws-11" value="" parent="g_I85KlBNZ0irVnc1Mws-1" style="edgeStyle=orthogonalEdgeStyle;curved=1;rounded=0;orthogonalLoop=1;jettySize=auto;html=1;exitX=0.5;exitY=0;exitDx=0;exitDy=0;entryX=0;entryY=0.5;entryDx=0;entryDy=0;" edge="1" target="g_I85KlBNZ0irVnc1Mws-18" source="g_I85KlBNZ0irVnc1Mws-17">
          <mxGeometry as="geometry" relative="1" />
        </mxCell>
        <mxCell id="g_I85KlBNZ0irVnc1Mws-12" value="&lt;b&gt;1&lt;/b&gt;" parent="g_I85KlBNZ0irVnc1Mws-11" vertex="1" style="text;html=1;align=center;verticalAlign=middle;resizable=0;points=[];labelBackgroundColor=#ffffff;" connectable="0">
          <mxGeometry as="geometry" x="-0.8682" relative="1">
            <mxPoint as="offset" />
          </mxGeometry>
        </mxCell>
        <mxCell id="g_I85KlBNZ0irVnc1Mws-13" value="1" parent="g_I85KlBNZ0irVnc1Mws-11" vertex="1" style="text;html=1;align=center;verticalAlign=middle;resizable=0;points=[];labelBackgroundColor=#ffffff;" connectable="0">
          <mxGeometry as="geometry" y="1" x="0.8372" relative="1">
            <mxPoint as="offset" />
          </mxGeometry>
        </mxCell>
        <mxCell id="g_I85KlBNZ0irVnc1Mws-14" parent="g_I85KlBNZ0irVnc1Mws-1" style="edgeStyle=orthogonalEdgeStyle;curved=1;rounded=0;orthogonalLoop=1;jettySize=auto;html=1;exitX=0.5;exitY=1;exitDx=0;exitDy=0;entryX=0;entryY=0.5;entryDx=0;entryDy=0;" edge="1" target="g_I85KlBNZ0irVnc1Mws-19" source="g_I85KlBNZ0irVnc1Mws-17">
          <mxGeometry as="geometry" relative="1" />
        </mxCell>
        <mxCell id="g_I85KlBNZ0irVnc1Mws-15" value="&lt;b&gt;1&lt;/b&gt;" parent="g_I85KlBNZ0irVnc1Mws-14" vertex="1" style="text;html=1;align=center;verticalAlign=middle;resizable=0;points=[];labelBackgroundColor=#ffffff;" connectable="0">
          <mxGeometry as="geometry" y="-1" x="-0.8824" relative="1">
            <mxPoint as="offset" />
          </mxGeometry>
        </mxCell>
        <mxCell id="g_I85KlBNZ0irVnc1Mws-16" value="1" parent="g_I85KlBNZ0irVnc1Mws-14" vertex="1" style="text;html=1;align=center;verticalAlign=middle;resizable=0;points=[];labelBackgroundColor=#ffffff;" connectable="0">
          <mxGeometry as="geometry" y="4" x="0.8182" relative="1">
            <mxPoint as="offset" />
          </mxGeometry>
        </mxCell>
        <mxCell id="g_I85KlBNZ0irVnc1Mws-17" value="A" parent="g_I85KlBNZ0irVnc1Mws-1" vertex="1" style="rounded=1;whiteSpace=wrap;html=1;">
          <mxGeometry as="geometry" height="60" width="120" y="510" x="80" />
        </mxCell>
        <mxCell id="g_I85KlBNZ0irVnc1Mws-18" value="B（Bid, Aid）" parent="g_I85KlBNZ0irVnc1Mws-1" vertex="1" style="rounded=1;whiteSpace=wrap;html=1;">
          <mxGeometry as="geometry" height="60" width="120" y="420" x="310" />
        </mxCell>
        <mxCell id="g_I85KlBNZ0irVnc1Mws-19" value="C （Cid, Aid）" parent="g_I85KlBNZ0irVnc1Mws-1" vertex="1" style="rounded=1;whiteSpace=wrap;html=1;">
          <mxGeometry as="geometry" height="60" width="120" y="600" x="310" />
        </mxCell>
        <mxCell id="g_I85KlBNZ0irVnc1Mws-29" value="" parent="g_I85KlBNZ0irVnc1Mws-1" style="edgeStyle=orthogonalEdgeStyle;curved=1;rounded=0;orthogonalLoop=1;jettySize=auto;html=1;exitX=0.5;exitY=0;exitDx=0;exitDy=0;entryX=0;entryY=0.5;entryDx=0;entryDy=0;" edge="1" target="g_I85KlBNZ0irVnc1Mws-36" source="g_I85KlBNZ0irVnc1Mws-35">
          <mxGeometry as="geometry" relative="1" />
        </mxCell>
        <mxCell id="g_I85KlBNZ0irVnc1Mws-30" value="&lt;b&gt;1&lt;/b&gt;" parent="g_I85KlBNZ0irVnc1Mws-29" vertex="1" style="text;html=1;align=center;verticalAlign=middle;resizable=0;points=[];labelBackgroundColor=#ffffff;" connectable="0">
          <mxGeometry as="geometry" x="-0.8682" relative="1">
            <mxPoint as="offset" />
          </mxGeometry>
        </mxCell>
        <mxCell id="g_I85KlBNZ0irVnc1Mws-31" value="1" parent="g_I85KlBNZ0irVnc1Mws-29" vertex="1" style="text;html=1;align=center;verticalAlign=middle;resizable=0;points=[];labelBackgroundColor=#ffffff;" connectable="0">
          <mxGeometry as="geometry" y="1" x="0.8372" relative="1">
            <mxPoint as="offset" />
          </mxGeometry>
        </mxCell>
        <mxCell id="g_I85KlBNZ0irVnc1Mws-32" parent="g_I85KlBNZ0irVnc1Mws-1" style="edgeStyle=orthogonalEdgeStyle;curved=1;rounded=0;orthogonalLoop=1;jettySize=auto;html=1;exitX=0.5;exitY=1;exitDx=0;exitDy=0;entryX=0;entryY=0.5;entryDx=0;entryDy=0;" edge="1" target="g_I85KlBNZ0irVnc1Mws-37" source="g_I85KlBNZ0irVnc1Mws-35">
          <mxGeometry as="geometry" relative="1" />
        </mxCell>
        <mxCell id="g_I85KlBNZ0irVnc1Mws-33" value="&lt;b&gt;1&lt;/b&gt;" parent="g_I85KlBNZ0irVnc1Mws-32" vertex="1" style="text;html=1;align=center;verticalAlign=middle;resizable=0;points=[];labelBackgroundColor=#ffffff;" connectable="0">
          <mxGeometry as="geometry" y="-1" x="-0.8824" relative="1">
            <mxPoint as="offset" />
          </mxGeometry>
        </mxCell>
        <mxCell id="g_I85KlBNZ0irVnc1Mws-34" value="1" parent="g_I85KlBNZ0irVnc1Mws-32" vertex="1" style="text;html=1;align=center;verticalAlign=middle;resizable=0;points=[];labelBackgroundColor=#ffffff;" connectable="0">
          <mxGeometry as="geometry" y="4" x="0.8182" relative="1">
            <mxPoint as="offset" />
          </mxGeometry>
        </mxCell>
        <mxCell id="g_I85KlBNZ0irVnc1Mws-35" value="A&lt;br&gt;（Aid, type, Bid/Cid）" parent="g_I85KlBNZ0irVnc1Mws-1" vertex="1" style="rounded=1;whiteSpace=wrap;html=1;">
          <mxGeometry as="geometry" height="60" width="120" y="510" x="510" />
        </mxCell>
        <mxCell id="g_I85KlBNZ0irVnc1Mws-36" value="B" parent="g_I85KlBNZ0irVnc1Mws-1" vertex="1" style="rounded=1;whiteSpace=wrap;html=1;">
          <mxGeometry as="geometry" height="60" width="120" y="420" x="740" />
        </mxCell>
        <mxCell id="g_I85KlBNZ0irVnc1Mws-37" value="C" parent="g_I85KlBNZ0irVnc1Mws-1" vertex="1" style="rounded=1;whiteSpace=wrap;html=1;">
          <mxGeometry as="geometry" height="60" width="120" y="600" x="740" />
        </mxCell>
        <mxCell id="g_I85KlBNZ0irVnc1Mws-38" value="解决方案1" parent="g_I85KlBNZ0irVnc1Mws-1" vertex="1" style="text;html=1;strokeColor=none;fillColor=none;align=center;verticalAlign=middle;whiteSpace=wrap;rounded=0;fontSize=17;fontStyle=1">
          <mxGeometry as="geometry" height="20" width="90" y="370" x="230" />
        </mxCell>
        <mxCell id="g_I85KlBNZ0irVnc1Mws-40" value="解决方案2" parent="g_I85KlBNZ0irVnc1Mws-1" vertex="1" style="text;html=1;strokeColor=none;fillColor=none;align=center;verticalAlign=middle;whiteSpace=wrap;rounded=0;fontSize=17;fontStyle=1">
          <mxGeometry as="geometry" height="20" width="90" y="370" x="710" />
        </mxCell>
        <mxCell id="g_I85KlBNZ0irVnc1Mws-41" value="问题域" parent="g_I85KlBNZ0irVnc1Mws-1" vertex="1" style="text;html=1;strokeColor=none;fillColor=none;align=center;verticalAlign=middle;whiteSpace=wrap;rounded=0;fontSize=17;fontStyle=1">
          <mxGeometry as="geometry" height="20" width="70" y="10" x="430" />
        </mxCell>
        <mxCell id="g_I85KlBNZ0irVnc1Mws-42" value="如何选择？优缺点?" parent="g_I85KlBNZ0irVnc1Mws-1" vertex="1" style="text;html=1;strokeColor=none;fillColor=none;align=center;verticalAlign=middle;whiteSpace=wrap;rounded=0;fontSize=17;fontStyle=1;fontColor=#FF6666;">
          <mxGeometry as="geometry" height="20" width="190" y="370" x="430" />
        </mxCell>
      </root>
    </mxGraphModel>
  </diagram>
</mxfile>
